<mxfile host="app.diagrams.net" modified="2024-01-16T17:20:21.503Z" agent="Mozilla/5.0 (X11; Linux x86_64; rv:121.0) Gecko/20100101 Firefox/121.0" etag="Riu96-u3hMTzb08wyRjS" version="22.1.18" type="device">
  <diagram name="Page-1" id="B7sx957EvbUTZkvT7VYQ">
    <mxGraphModel dx="790" dy="430" grid="1" gridSize="10" guides="1" tooltips="1" connect="1" arrows="1" fold="1" page="1" pageScale="1" pageWidth="827" pageHeight="1169" math="0" shadow="0">
      <root>
        <mxCell id="0" />
        <mxCell id="1" parent="0" />
        <mxCell id="e11iyjJyKyX5rRUxYv6L-1" value="&lt;div&gt;hsync&lt;/div&gt;&lt;div&gt;module&lt;br&gt;&lt;/div&gt;" style="rounded=0;whiteSpace=wrap;html=1;" vertex="1" parent="1">
          <mxGeometry x="61" y="20" width="80" height="60" as="geometry" />
        </mxCell>
        <mxCell id="e11iyjJyKyX5rRUxYv6L-2" value="&lt;div&gt;vsync&lt;/div&gt;&lt;div&gt;module&lt;/div&gt;" style="rounded=0;whiteSpace=wrap;html=1;" vertex="1" parent="1">
          <mxGeometry x="181" y="60" width="70" height="60" as="geometry" />
        </mxCell>
        <mxCell id="e11iyjJyKyX5rRUxYv6L-3" value="hsync" style="endArrow=classic;html=1;rounded=0;labelBackgroundColor=none;labelPosition=center;verticalLabelPosition=top;align=center;verticalAlign=bottom;" edge="1" parent="1">
          <mxGeometry width="50" height="50" relative="1" as="geometry">
            <mxPoint x="141" y="70" as="sourcePoint" />
            <mxPoint x="181" y="70" as="targetPoint" />
          </mxGeometry>
        </mxCell>
        <mxCell id="e11iyjJyKyX5rRUxYv6L-12" value="" style="endArrow=none;html=1;rounded=0;" edge="1" parent="1">
          <mxGeometry width="50" height="50" relative="1" as="geometry">
            <mxPoint x="161" y="140" as="sourcePoint" />
            <mxPoint x="161" y="70" as="targetPoint" />
          </mxGeometry>
        </mxCell>
        <mxCell id="e11iyjJyKyX5rRUxYv6L-13" value="" style="endArrow=classic;html=1;rounded=0;" edge="1" parent="1">
          <mxGeometry width="50" height="50" relative="1" as="geometry">
            <mxPoint x="161" y="140" as="sourcePoint" />
            <mxPoint x="351" y="140" as="targetPoint" />
          </mxGeometry>
        </mxCell>
        <mxCell id="e11iyjJyKyX5rRUxYv6L-14" value="" style="endArrow=classic;html=1;rounded=0;entryX=0;entryY=0.5;entryDx=0;entryDy=0;" edge="1" parent="1" target="e11iyjJyKyX5rRUxYv6L-30">
          <mxGeometry width="50" height="50" relative="1" as="geometry">
            <mxPoint x="141" y="30" as="sourcePoint" />
            <mxPoint x="271" y="30" as="targetPoint" />
          </mxGeometry>
        </mxCell>
        <mxCell id="e11iyjJyKyX5rRUxYv6L-15" value="hsync" style="endArrow=classic;html=1;rounded=0;labelBackgroundColor=none;labelPosition=center;verticalLabelPosition=top;align=center;verticalAlign=bottom;" edge="1" parent="1">
          <mxGeometry width="50" height="50" relative="1" as="geometry">
            <mxPoint x="350" y="140" as="sourcePoint" />
            <mxPoint x="421" y="140" as="targetPoint" />
          </mxGeometry>
        </mxCell>
        <mxCell id="e11iyjJyKyX5rRUxYv6L-16" value="" style="endArrow=classic;html=1;rounded=0;" edge="1" parent="1">
          <mxGeometry width="50" height="50" relative="1" as="geometry">
            <mxPoint x="251" y="110" as="sourcePoint" />
            <mxPoint x="351" y="110" as="targetPoint" />
          </mxGeometry>
        </mxCell>
        <mxCell id="e11iyjJyKyX5rRUxYv6L-17" value="vsync" style="endArrow=classic;html=1;rounded=0;labelBackgroundColor=none;labelPosition=center;verticalLabelPosition=top;align=center;verticalAlign=bottom;" edge="1" parent="1">
          <mxGeometry width="50" height="50" relative="1" as="geometry">
            <mxPoint x="350" y="110" as="sourcePoint" />
            <mxPoint x="421" y="110" as="targetPoint" />
          </mxGeometry>
        </mxCell>
        <mxCell id="e11iyjJyKyX5rRUxYv6L-19" value="" style="endArrow=none;html=1;rounded=0;" edge="1" parent="1">
          <mxGeometry width="50" height="50" relative="1" as="geometry">
            <mxPoint x="141" y="50" as="sourcePoint" />
            <mxPoint x="261" y="50" as="targetPoint" />
          </mxGeometry>
        </mxCell>
        <mxCell id="e11iyjJyKyX5rRUxYv6L-20" value="" style="endArrow=classic;html=1;rounded=0;" edge="1" parent="1">
          <mxGeometry width="50" height="50" relative="1" as="geometry">
            <mxPoint x="251" y="70" as="sourcePoint" />
            <mxPoint x="351" y="70" as="targetPoint" />
          </mxGeometry>
        </mxCell>
        <mxCell id="e11iyjJyKyX5rRUxYv6L-21" value="" style="endArrow=none;html=1;rounded=0;" edge="1" parent="1">
          <mxGeometry width="50" height="50" relative="1" as="geometry">
            <mxPoint x="261" y="50" as="sourcePoint" />
            <mxPoint x="281" y="70" as="targetPoint" />
          </mxGeometry>
        </mxCell>
        <mxCell id="e11iyjJyKyX5rRUxYv6L-22" value="&lt;div&gt;adr&lt;/div&gt;&lt;div&gt;[13:0]&lt;br&gt;&lt;/div&gt;" style="endArrow=classic;html=1;rounded=0;labelBackgroundColor=none;labelPosition=center;verticalLabelPosition=middle;align=center;verticalAlign=middle;" edge="1" parent="1">
          <mxGeometry width="50" height="50" relative="1" as="geometry">
            <mxPoint x="350" y="70" as="sourcePoint" />
            <mxPoint x="421" y="70" as="targetPoint" />
          </mxGeometry>
        </mxCell>
        <mxCell id="e11iyjJyKyX5rRUxYv6L-23" value="&lt;div&gt;displaying&lt;/div&gt;&lt;div&gt;time&lt;br&gt;&lt;/div&gt;" style="endArrow=classic;html=1;rounded=0;labelBackgroundColor=none;labelPosition=center;verticalLabelPosition=middle;align=center;verticalAlign=middle;" edge="1" parent="1">
          <mxGeometry width="50" height="50" relative="1" as="geometry">
            <mxPoint x="350" y="30" as="sourcePoint" />
            <mxPoint x="421" y="30" as="targetPoint" />
          </mxGeometry>
        </mxCell>
        <mxCell id="e11iyjJyKyX5rRUxYv6L-25" value="" style="endArrow=none;html=1;rounded=0;" edge="1" parent="1">
          <mxGeometry width="50" height="50" relative="1" as="geometry">
            <mxPoint x="251" y="90" as="sourcePoint" />
            <mxPoint x="291" y="90" as="targetPoint" />
          </mxGeometry>
        </mxCell>
        <mxCell id="e11iyjJyKyX5rRUxYv6L-26" value="" style="endArrow=none;html=1;rounded=0;" edge="1" parent="1">
          <mxGeometry width="50" height="50" relative="1" as="geometry">
            <mxPoint x="291" y="90" as="sourcePoint" />
            <mxPoint x="291" y="80" as="targetPoint" />
          </mxGeometry>
        </mxCell>
        <mxCell id="e11iyjJyKyX5rRUxYv6L-28" value="" style="endArrow=none;dashed=1;html=1;dashPattern=1 3;strokeWidth=2;rounded=0;" edge="1" parent="1">
          <mxGeometry width="50" height="50" relative="1" as="geometry">
            <mxPoint x="291" y="80" as="sourcePoint" />
            <mxPoint x="291" y="60" as="targetPoint" />
          </mxGeometry>
        </mxCell>
        <mxCell id="e11iyjJyKyX5rRUxYv6L-30" value="&amp;amp;" style="whiteSpace=wrap;html=1;aspect=fixed;" vertex="1" parent="1">
          <mxGeometry x="281" y="20" width="20" height="20" as="geometry" />
        </mxCell>
        <mxCell id="e11iyjJyKyX5rRUxYv6L-31" value="" style="endArrow=classic;html=1;rounded=0;" edge="1" parent="1">
          <mxGeometry width="50" height="50" relative="1" as="geometry">
            <mxPoint x="290.71" y="60" as="sourcePoint" />
            <mxPoint x="290.71" y="40" as="targetPoint" />
          </mxGeometry>
        </mxCell>
        <mxCell id="e11iyjJyKyX5rRUxYv6L-32" value="" style="endArrow=classic;html=1;rounded=0;" edge="1" parent="1">
          <mxGeometry width="50" height="50" relative="1" as="geometry">
            <mxPoint x="301" y="30" as="sourcePoint" />
            <mxPoint x="351" y="30" as="targetPoint" />
          </mxGeometry>
        </mxCell>
        <mxCell id="e11iyjJyKyX5rRUxYv6L-46" value="clk" style="endArrow=classic;html=1;rounded=0;labelPosition=center;verticalLabelPosition=top;align=center;verticalAlign=bottom;labelBackgroundColor=none;" edge="1" parent="1">
          <mxGeometry width="50" height="50" relative="1" as="geometry">
            <mxPoint x="11" y="160" as="sourcePoint" />
            <mxPoint x="51" y="160" as="targetPoint" />
          </mxGeometry>
        </mxCell>
        <mxCell id="e11iyjJyKyX5rRUxYv6L-47" value="reset" style="endArrow=classic;html=1;rounded=0;labelPosition=center;verticalLabelPosition=top;align=center;verticalAlign=bottom;labelBackgroundColor=none;" edge="1" parent="1">
          <mxGeometry width="50" height="50" relative="1" as="geometry">
            <mxPoint x="10" y="180" as="sourcePoint" />
            <mxPoint x="50" y="180" as="targetPoint" />
          </mxGeometry>
        </mxCell>
        <mxCell id="e11iyjJyKyX5rRUxYv6L-48" value="" style="endArrow=none;html=1;rounded=0;" edge="1" parent="1">
          <mxGeometry width="50" height="50" relative="1" as="geometry">
            <mxPoint x="50" y="160" as="sourcePoint" />
            <mxPoint x="201" y="160" as="targetPoint" />
          </mxGeometry>
        </mxCell>
        <mxCell id="e11iyjJyKyX5rRUxYv6L-49" value="" style="endArrow=none;html=1;rounded=0;" edge="1" parent="1">
          <mxGeometry width="50" height="50" relative="1" as="geometry">
            <mxPoint x="50" y="180" as="sourcePoint" />
            <mxPoint x="231" y="180" as="targetPoint" />
          </mxGeometry>
        </mxCell>
        <mxCell id="e11iyjJyKyX5rRUxYv6L-50" value="" style="endArrow=classic;html=1;rounded=0;" edge="1" parent="1">
          <mxGeometry width="50" height="50" relative="1" as="geometry">
            <mxPoint x="201" y="130" as="sourcePoint" />
            <mxPoint x="201" y="120" as="targetPoint" />
          </mxGeometry>
        </mxCell>
        <mxCell id="e11iyjJyKyX5rRUxYv6L-51" value="" style="endArrow=classic;html=1;rounded=0;" edge="1" parent="1">
          <mxGeometry width="50" height="50" relative="1" as="geometry">
            <mxPoint x="231" y="130" as="sourcePoint" />
            <mxPoint x="231" y="120" as="targetPoint" />
          </mxGeometry>
        </mxCell>
        <mxCell id="e11iyjJyKyX5rRUxYv6L-53" value="" style="endArrow=classic;html=1;rounded=0;" edge="1" parent="1">
          <mxGeometry width="50" height="50" relative="1" as="geometry">
            <mxPoint x="110.99999999999997" y="150" as="sourcePoint" />
            <mxPoint x="110.99999999999997" y="80" as="targetPoint" />
          </mxGeometry>
        </mxCell>
        <mxCell id="e11iyjJyKyX5rRUxYv6L-54" value="" style="endArrow=none;dashed=1;html=1;dashPattern=1 3;strokeWidth=2;rounded=0;" edge="1" parent="1">
          <mxGeometry width="50" height="50" relative="1" as="geometry">
            <mxPoint x="111" y="170" as="sourcePoint" />
            <mxPoint x="111" y="150" as="targetPoint" />
          </mxGeometry>
        </mxCell>
        <mxCell id="e11iyjJyKyX5rRUxYv6L-55" value="" style="endArrow=none;html=1;rounded=0;" edge="1" parent="1">
          <mxGeometry width="50" height="50" relative="1" as="geometry">
            <mxPoint x="111" y="180" as="sourcePoint" />
            <mxPoint x="111" y="170" as="targetPoint" />
          </mxGeometry>
        </mxCell>
        <mxCell id="e11iyjJyKyX5rRUxYv6L-56" value="sync_pulse_module" style="text;html=1;strokeColor=none;fillColor=none;align=center;verticalAlign=middle;whiteSpace=wrap;rounded=0;" vertex="1" parent="1">
          <mxGeometry x="240.5" y="170" width="101" height="10" as="geometry" />
        </mxCell>
        <mxCell id="e11iyjJyKyX5rRUxYv6L-57" value="" style="endArrow=classic;html=1;rounded=0;" edge="1" parent="1">
          <mxGeometry width="50" height="50" relative="1" as="geometry">
            <mxPoint x="81" y="160" as="sourcePoint" />
            <mxPoint x="82" y="80" as="targetPoint" />
          </mxGeometry>
        </mxCell>
        <mxCell id="e11iyjJyKyX5rRUxYv6L-58" value="" style="endArrow=none;html=1;rounded=0;" edge="1" parent="1">
          <mxGeometry width="50" height="50" relative="1" as="geometry">
            <mxPoint x="201" y="160" as="sourcePoint" />
            <mxPoint x="201" y="150" as="targetPoint" />
          </mxGeometry>
        </mxCell>
        <mxCell id="e11iyjJyKyX5rRUxYv6L-59" value="" style="endArrow=none;html=1;rounded=0;" edge="1" parent="1">
          <mxGeometry width="50" height="50" relative="1" as="geometry">
            <mxPoint x="231" y="180" as="sourcePoint" />
            <mxPoint x="231" y="150" as="targetPoint" />
          </mxGeometry>
        </mxCell>
        <mxCell id="e11iyjJyKyX5rRUxYv6L-60" value="" style="endArrow=none;dashed=1;html=1;dashPattern=1 3;strokeWidth=2;rounded=0;" edge="1" parent="1">
          <mxGeometry width="50" height="50" relative="1" as="geometry">
            <mxPoint x="201" y="150" as="sourcePoint" />
            <mxPoint x="201" y="130" as="targetPoint" />
          </mxGeometry>
        </mxCell>
        <mxCell id="e11iyjJyKyX5rRUxYv6L-61" value="" style="endArrow=none;dashed=1;html=1;dashPattern=1 3;strokeWidth=2;rounded=0;" edge="1" parent="1">
          <mxGeometry width="50" height="50" relative="1" as="geometry">
            <mxPoint x="231" y="150" as="sourcePoint" />
            <mxPoint x="231" y="130" as="targetPoint" />
          </mxGeometry>
        </mxCell>
        <mxCell id="e11iyjJyKyX5rRUxYv6L-62" value="" style="rounded=0;whiteSpace=wrap;html=1;fillColor=none;" vertex="1" parent="1">
          <mxGeometry x="51" y="10" width="300" height="180" as="geometry" />
        </mxCell>
      </root>
    </mxGraphModel>
  </diagram>
</mxfile>
